<svg width="100" height="100" viewBox="0 0 100 100" fill="none" xmlns="http://www.w3.org/2000/svg">
<rect width="100" height="100" rx="20" fill="#14B8A6"/>
<path d="M44.0981 11.0063C43.778 11.0244 43.4599 11.0824 43.1489 11.1899C39.3929 11.8659 37.4188 16.6677 39.0668 19.9477C38.8668 20.1317 38.6692 20.3204 38.4692 20.5024C37.7452 19.5084 36.4561 19.7837 35.4301 20.0297C33.2601 20.7617 31.8651 22.7642 31.1371 24.8422C30.2331 27.2842 30.3114 29.9388 30.6254 32.4828C29.6174 32.9628 28.4797 32.658 27.4457 33.018C27.3717 35.052 27.2372 37.0881 26.8832 39.0961C26.8012 39.6901 26.6789 40.3071 26.8989 40.8891C27.8129 41.1011 28.7208 41.3374 29.6528 41.4594C29.0808 41.5674 28.5359 41.7772 28.0239 42.0492C28.0239 42.0492 27.7254 42.2756 27.6254 42.3696C27.3174 45.0196 28.2327 47.5848 28.1567 50.2328C26.9307 49.9728 26.9769 51.4055 26.8129 52.2055C26.9809 52.3595 27.1468 52.5182 27.3168 52.6742C27.1568 52.9522 27.0244 53.2375 26.9184 53.5375C27.1344 54.2975 26.9182 55.1962 27.5942 55.7602C27.2362 58.0082 26.8204 60.252 26.5864 62.518C26.4904 63.266 26.9677 64.0067 26.6957 64.7367C26.4417 65.5627 25.8095 66.2127 25.6215 67.0727C24.6375 68.0467 24.0955 69.3472 23.4575 70.5532C22.9155 71.5172 23.0193 72.6477 22.7973 73.6977C22.2093 74.7217 21.3613 75.7173 21.3793 76.9633C21.3693 77.6313 21.2392 78.393 21.8012 78.893C21.3532 81.283 20.6169 83.6071 20.0629 85.9711C19.9749 86.8691 19.9164 87.8501 20.3364 88.6821C22.1264 89.1921 23.9967 88.9452 25.8207 88.8032C25.9427 88.0032 25.9648 87.1893 25.5668 86.4633C24.9188 84.1533 25.5516 81.6461 26.6996 79.5961C27.7076 79.4121 28.0534 78.4329 28.2934 77.5649C28.8194 75.6389 30.0691 73.9957 30.4731 72.0297C30.5631 71.4117 30.1779 70.7802 30.4379 70.1782C30.7219 69.5242 30.8918 68.7309 31.5278 68.3149C32.1138 67.9349 32.4067 67.2904 32.6567 66.6664C32.8487 66.0884 33.5737 65.9849 33.8637 65.4789C34.4037 64.5389 34.1336 63.3746 34.6176 62.4086C35.2516 60.9206 35.5717 59.2112 36.7817 58.0492C37.3537 57.5552 37.3192 56.7241 37.8012 56.1821C38.1392 56.8421 38.4177 57.5658 38.9457 58.1078C39.4037 58.3058 39.9206 58.2555 40.4106 58.2875C41.6606 60.1155 42.8933 61.9534 44.1293 63.7914C44.6513 64.6474 45.8315 64.8196 46.7075 64.4516C46.9695 64.8876 47.3746 65.2697 47.4926 65.7797C47.4166 66.5637 47.314 67.3452 47.27 68.1352C46.786 68.5892 46.431 69.2168 46.559 69.9008C46.721 71.3068 46.8495 72.7212 46.9575 74.1352C47.1235 75.1032 47.6238 76.0021 47.5278 77.0141C47.6618 77.1261 47.9289 77.3513 48.0629 77.4633C47.9729 79.0133 48.4002 80.5679 48.1762 82.1039C47.4782 83.4599 47.4449 85.021 47.0629 86.475C47.9629 87.523 49.389 86.9411 50.559 86.9711C51.767 87.1111 52.8775 87.7793 54.1215 87.7133C55.7375 87.6893 57.3673 87.8354 58.9653 87.5414C59.0713 86.9654 59.1151 86.3806 58.8911 85.8266C58.1591 85.3546 57.3637 84.9926 56.5317 84.7446C55.6477 84.5226 55.1586 83.6927 54.5746 83.0727C54.0406 82.3767 53.2547 81.7781 53.1567 80.8461C53.0187 79.5761 53.0796 78.2842 53.1176 77.0102C53.3176 76.4662 53.7434 75.9993 53.7114 75.3813C53.9954 74.1773 53.2932 73.009 53.5512 71.811C53.9692 69.159 54.2993 66.4814 54.2153 63.7914C54.0733 63.5894 53.9333 63.3899 53.7973 63.1899C53.7533 62.7479 53.7066 62.3134 53.6606 61.8774C53.3106 61.7234 52.9124 61.5689 52.8364 61.1469C52.0564 58.9689 51.1626 56.8364 50.1606 54.7524C49.1866 52.9124 47.9218 51.2416 46.5278 49.7016C46.2798 48.9776 46.2019 48.2053 46.0239 47.4633C46.1619 47.1853 46.2998 46.9073 46.4418 46.6313C47.0658 46.7193 47.8867 47.3267 48.4067 46.7367C49.0007 45.8287 49.4784 44.8097 49.4184 43.6977C49.4104 41.8017 49.954 39.9236 49.684 38.0336C49.534 37.1656 48.8347 36.5452 47.9887 36.3852C48.1587 35.7712 48.3222 35.1518 48.4262 34.5258C50.6522 35.6698 52.9092 37.2412 55.4692 37.4672C56.8852 37.6752 57.5793 36.3467 58.6293 35.7367C59.9973 34.7627 59.635 32.8593 60.227 31.4633C60.639 31.3253 61.059 31.2044 61.477 31.0844C61.261 29.7264 60.7092 28.418 60.8012 27.018C61.5472 26.46 62.421 25.8538 62.727 24.9438C63.017 24.8038 63.3081 24.6583 63.5981 24.5063C65.7121 24.4743 67.8258 24.5187 69.9418 24.4907C70.4798 24.5187 70.2826 23.8028 70.4106 23.4828C70.9466 23.8268 71.6093 23.8716 72.2153 23.7016C73.2353 23.3676 74.3234 23.5524 75.3754 23.5024C76.0594 23.5224 76.8191 23.3659 77.3871 23.8539C78.2651 23.7019 79.1592 23.7188 80.0512 23.7328C80.0632 23.3748 80.0724 23.0205 80.0864 22.6625C79.3924 22.6645 78.7021 22.67 78.0121 22.686C77.8021 22.602 77.5893 22.518 77.3793 22.436C77.2653 22.522 77.0363 22.6879 76.9223 22.7719C75.3903 22.8959 73.8411 22.795 72.3051 22.811C72.3231 22.331 72.5591 21.7947 72.1411 21.4047C72.0511 21.5107 71.8717 21.7245 71.7817 21.8305C71.6617 21.6845 71.4212 21.3887 71.3012 21.2407C71.2932 20.4547 71.2935 19.6712 71.2895 18.8852C71.1535 18.8872 70.8787 18.8948 70.7387 18.9008C70.7407 19.8968 70.7366 20.8989 70.7426 21.8969C70.5986 21.8969 70.3104 21.893 70.1684 21.893C70.1804 21.705 70.2052 21.331 70.2192 21.143C64.7332 21.089 59.2501 21.1438 53.7621 21.1118C53.7621 20.9858 53.7583 20.7378 53.7543 20.6118C53.4203 20.5318 53.0901 20.4459 52.7621 20.3539C52.7601 19.8419 52.7487 19.3178 52.4887 18.8618C52.2647 19.5478 52.1353 20.2594 51.9653 20.9594C50.7133 20.8734 49.6414 21.7533 48.3754 21.5493C48.3114 20.8213 48.1976 20.0958 48.1996 19.3618C48.7916 19.1638 49.5218 19.0847 49.9418 18.5727C50.5578 17.0547 50.1521 15.3429 49.5161 13.8969C49.5521 13.8129 49.6168 13.6372 49.6528 13.5532C49.5848 13.4272 49.4434 13.1733 49.3754 13.0453C48.4834 12.7093 47.6871 12.1902 46.8911 11.6782C46.0361 11.2567 45.0583 10.9519 44.0981 11.0063ZM57.3832 25.4321C57.5652 25.8621 57.6674 26.3176 57.7114 26.7836C57.6134 26.8836 57.4148 27.086 57.3168 27.186C56.8468 28.204 56.1556 29.1634 55.2856 29.8774C55.0016 29.1794 54.6562 28.5096 54.2582 27.8696C54.1662 27.3176 54.9628 27.1611 55.3168 26.8891C55.5428 26.7671 55.7647 26.6403 55.9887 26.5063C55.5307 26.0203 55.959 25.7157 56.395 25.4477C56.723 25.4457 57.0552 25.4381 57.3832 25.4321Z" fill="#0F0F0F"/>
</svg>
